<?xml version="1.0" standalone="no"?><!DOCTYPE svg PUBLIC "-//W3C//DTD SVG 1.1//EN" "http://www.w3.org/Graphics/SVG/1.1/DTD/svg11.dtd"><svg t="1542512465869" class="icon" style="" viewBox="0 0 1024 1024" version="1.1" xmlns="http://www.w3.org/2000/svg" p-id="9439" xmlns:xlink="http://www.w3.org/1999/xlink" width="32" height="32"><defs><style type="text/css"></style></defs><path d="M691.2 64H335c-58.2 0-107.5 47-105.3 105.3v685.4c0 58.2 47 105.3 105.3 105.3h354c58.2 0 107.5-47 107.5-107.5V169.3C796.5 111 749.4 64 691.2 64z m62.7 790.7c0 35.8-29.1 62.7-62.7 62.7H335c-35.8 0-62.7-29.1-62.7-62.7v-47h481.6v47z m0-91.8H272.3V256.6h481.6v506.3z m0-551.1H272.3v-40.3c0-35.8 29.1-62.7 62.7-62.7l356.2-2.2c35.8 0 62.7 29.1 62.7 62.7v42.5z" p-id="9440" fill="#FF6402"></path><path d="M545.6 122.2h-69.4c-13.4 0-22.4 9-22.4 22.4 0 13.4 9 22.4 22.4 22.4h69.4c13.4 0 22.4-9 22.4-22.4 0-13.4-9-22.4-22.4-22.4zM512 904c17.9 0 31.4-13.4 31.4-31.4 0-17.9-13.4-31.4-31.4-31.4-17.9 0-31.4 13.4-31.4 31.4S494.1 904 512 904z" p-id="9441" fill="#FF6402"></path></svg>