<?xml version="1.0" encoding="UTF-8"?>
<svg width="102px" height="59px" viewBox="0 0 102 59" version="1.1" xmlns="http://www.w3.org/2000/svg" xmlns:xlink="http://www.w3.org/1999/xlink">
    <!-- Generator: Sketch 50.2 (55047) - http://www.bohemiancoding.com/sketch -->
    <title>logo11111</title>
    <desc>Created with Sketch.</desc>
    <defs></defs>
    <g id="Page-1" stroke="none" stroke-width="1" fill="none" fill-rule="evenodd">
        <g id="logo11111" transform="translate(-4.000000, -11.000000)">
            <rect id="Rectangle" x="0" y="0" width="110" height="82"></rect>
            <g id="taoche-logo-1" transform="translate(4.000000, 11.000000)" fill="#FF6402" fill-rule="nonzero">
                <path d="M83.6125429,53.5 C83.3927254,55.086225 81.9535617,56.3705029 80.3953713,56.3705029 C78.8391524,56.3705029 77.7528795,55.086225 77.9714649,53.5 C78.1902966,51.913775 79.6311853,50.6294971 81.1888828,50.6294971 C82.7460875,50.6294971 83.8313746,51.913775 83.6125429,53.5 M81.5513845,48 C78.5665985,48 75.8077907,50.4624732 75.3878703,53.5 C74.96795,56.5365236 77.0478372,59 80.0331161,59 C83.0179021,59 85.7769563,56.5365236 86.1971231,53.5 C86.6155649,50.4624732 84.5361705,48 81.5513845,48 M72.1665095,56.3705029 C70.6731307,56.3705029 69.6415658,55.086225 69.8603975,53.5 C70.0812007,51.913775 71.4676279,50.6284939 72.9590352,50.6284939 C73.7170605,50.6284939 74.354334,50.9612877 74.7715436,51.4942091 L76.2562972,49.0648397 C75.4541606,48.3979983 74.4100276,48 73.2168032,48 C70.2330029,48 67.4732094,50.4624732 67.0537819,53.5 C66.6343545,56.5365236 68.7137488,59 71.6995206,59 C72.892745,59 74.0467867,58.6009986 75.0327616,57.9341571 L74.2185499,55.5047877 C73.6544667,56.0387123 72.9240418,56.3705029 72.1665095,56.3705029 M97.2451686,48.5833295 L95.4181208,48.5833295 L94.7911974,49.5842187 C94.0607726,48.8371255 92.89367,48.5833295 91.7728966,48.5833295 L90.3975589,48.5833295 L90.4505418,48.1968674 L87.6446655,48.6390041 L86.2449309,58.7690256 L88.9916635,58.7690256 L90.1715806,50.2182071 L90.7524211,50.2182071 C92.7613359,50.2182071 92.7827755,51.9426155 92.6339305,53.02175 L91.8396797,58.7690256 L94.5849337,58.7690256 L95.4787431,52.2919612 C95.5992484,51.4219826 95.4910647,50.7448589 95.2328038,50.2182071 L96.2232145,50.2182071 C98.233115,50.2182071 98.2540618,51.9426155 98.1039846,53.02175 L97.2249612,58.7690256 L100.055727,58.7690256 L100.950522,52.2919612 C101.353192,49.3720533 99.2242651,48.5833295 97.2451686,48.5833295" id="Fill-1"></path>
                <path d="M6.59219807,53.9850187 L7.03218564,50.8781052 L9.78605205,50.8781052 L10.0737844,48.841359 L7.32091966,48.841359 L7.52726556,47.3844111 L4.17940341,47.8978827 L4.04567925,48.841359 L2.28898444,48.841359 L2,50.8781052 L3.75719565,50.8781052 L3.20051246,54.8109952 C2.7327283,58.1096843 5.20011447,59 7.49646393,59 L8.00206148,59 L8.8539896,57.1530421 L8.77285359,57.1530421 C6.4444504,57.1530421 6.4204101,55.2049797 6.59219807,53.9850187 M58.0251671,50.2615417 C59.1660796,50.1716158 60.0786093,50.9975923 60.3503148,52.2237637 L55.3339056,52.9814263 C55.6694681,51.522491 56.7778261,50.3596652 58.0251671,50.2615417 M57.6402719,56.6231751 C56.4988585,56.7140946 55.5860783,55.8881182 55.3143729,54.6619468 L63.0613594,53.4929106 L63.3180397,53.4541581 C63.339075,53.3061033 63.3586077,53.157055 63.3678732,53.0070129 C63.5501789,50.0064205 61.2195219,47.7704464 58.1616459,48.0124016 C55.1037698,48.2533631 52.480873,50.8813346 52.2998195,53.8809333 C52.1185155,56.8785447 54.4456666,59.1142704 57.5045443,58.8725636 C59.5865344,58.7091072 61.4669366,57.4359856 62.5126897,55.6951005 L59.9230986,54.9672476 C59.4089868,55.8943285 58.5640705,56.5508866 57.6402719,56.6231751 M17.7809542,53.3520599 C17.5585814,54.9232783 16.0936257,56.1954063 14.5109726,56.1954063 C12.9290708,56.1954063 11.8267229,54.9232783 12.0495965,53.3520599 C12.2717189,51.7808416 13.7351721,50.5087136 15.3175747,50.5087136 C16.8999774,50.5087136 18.0038278,51.7808416 17.7809542,53.3520599 M19.9583543,54.2955362 L21.3890025,48.0918941 L18.1112579,48.5176756 C17.413338,48.129653 16.5947157,47.9040931 15.6876952,47.9040931 C12.6548611,47.9040931 9.85066035,50.3432699 9.42244252,53.3520599 C8.9982314,56.3598563 11.1110231,58.8000268 14.1441076,58.8000268 C15.2709967,58.8000268 16.3620757,58.4559734 17.3151734,57.8779141 C17.9229422,58.3263013 18.7595947,58.5222999 19.6127749,58.5620462 L19.6160304,58.5580715 L20.4456712,56.7538409 C19.6731261,56.2127952 19.7767999,55.0847474 19.9583543,54.2955362 M29.454523,53.3520599 C29.231399,54.9232783 27.7666937,56.1954063 26.1852927,56.1954063 C24.6021388,56.1954063 23.4987892,54.9232783 23.7221637,53.3520599 C23.944286,51.7808416 25.4074888,50.5087136 26.9898915,50.5087136 C28.5732958,50.5087136 29.6771462,51.7808416 29.454523,53.3520599 M27.3590103,47.9040931 C24.3259258,47.9040931 21.5224763,50.3432699 21.0960114,53.3520599 C20.6705481,56.3598563 22.7830895,58.8000268 25.8161739,58.8000268 C28.8502601,58.8000268 31.6547113,56.3598563 32.0799241,53.3520599 C32.506389,50.3432699 30.3930964,47.9040931 27.3590103,47.9040931 M47.913216,48.481904 L45.9171199,48.481904 L46.2684589,46 L43.4171792,46.4369602 L41.6982977,58.5712375 L44.4879742,58.5712375 L45.687485,50.1013147 L46.8762277,50.1013147 C48.9176498,50.1013147 48.9389355,51.8094092 48.7869307,52.8783345 L47.980579,58.5712375 L50.7707562,58.5712375 L51.6795296,52.1554498 C52.0892164,49.2629175 49.925339,48.481904 47.913216,48.481904 M38.0684629,56.1954063 C36.5516702,56.1954063 35.5026618,54.9232783 35.7252849,53.3520599 C35.9474073,51.7808416 37.358022,50.5077199 38.8745642,50.5077199 C39.6446051,50.5077199 40.2926915,50.8373653 40.7161513,51.365245 L42.2244297,48.9588588 C41.4095637,48.2980777 40.3487855,47.9040931 39.1367537,47.9040931 C36.1034188,47.9040931 33.2974651,50.3432699 32.8730036,53.3520599 C32.445537,56.3598563 34.5605825,58.8000268 37.5931661,58.8000268 C38.8059492,58.8000268 39.978665,58.4048001 40.980845,57.745261 L40.1537085,55.3378812 C39.5802472,55.8667546 38.8387542,56.1954063 38.0684629,56.1954063 M65.4145542,55.1806352 C64.4073658,55.1806352 63.4755538,55.99121 63.3340666,56.9908278 C63.1935811,57.9892035 63.8955077,58.8000268 64.9029465,58.8000268 C65.9096341,58.8000268 66.8409453,57.9892035 66.9819316,56.9908278 C67.1231684,55.99121 66.4209913,55.1806352 65.4145542,55.1806352" id="Fill-3"></path>
                <g id="Group-7">
                    <path d="M70.7689242,8.4201754 L99.1778739,8.4201754 C101.109752,8.4201754 101.765417,3.98971247 101.765417,3.98971247 L72.2931607,3.98971247 C72.6907343,2.83537778 73.1271074,1.5660046 73.6135763,0.152216161 L65.0599745,0.152216161 C64.5747334,1.56254851 64.1376235,2.83192169 63.7390677,3.98971247 L58.4699292,3.98971247 L57.8515906,8.4201754 L62.2136034,8.4201754 C60.1589414,14.3885992 59.8085168,15.4029622 59.3114885,16.8419307 C57.6229674,21.7288446 59.2127704,24.9082023 65.7841526,24.9082023 L77.8378259,24.9082023 L76.7875343,32.4239678 L54.3242612,32.4239678 L53.7059226,36.8544308 L76.1682135,36.8544308 L75.4150584,42.2412437 L83.9686602,42.2412437 L84.7218153,36.8544308 L96.0547484,36.8544308 C97.9871178,36.8544308 98.6427826,32.4239678 98.6427826,32.4239678 L85.3411361,32.4239678 L86.3919188,24.9082023 L95.6800126,24.9082023 C97.6118909,24.9082023 98.2673102,20.4777394 98.2673102,20.4777394 L87.0114852,20.4777394 L87.8324169,14.6016426 L79.2793062,14.6016426 L78.4573923,20.4777394 L71.2910004,20.4777394 C68.0954325,20.4777394 67.1146365,19.0138376 68.1327587,16.0722097 C68.4893225,15.0376039 68.7646035,14.2417153 70.7689242,8.4201754 M14.0286241,13.726017 L19.156807,13.726017 L16.3568481,1.98048877 L7.51347678,1.98048877 C7.51347678,1.98048877 10.9843257,13.726017 14.0286241,13.726017 M13.094977,17.5124125 L6.13977304,17.5124125 C6.13977304,17.5124125 8.239865,19.7981236 9.13839592,21.5649271 C10.7372849,24.7079958 10.2095607,26.4975108 6.93934033,31.6498032 C2.90466881,38.0030876 9.82269389e-05,41.5137363 9.82269389e-05,41.5137363 L10.28716,41.5137363 C10.28716,41.5137363 13.8456764,35.3347378 15.5091496,30.8825508 C17.0788161,26.681918 17.5645483,24.1387281 15.5091496,20.7989091 C14.1015576,18.5038172 13.094977,17.5124125 13.094977,17.5124125 M34.4676855,3.39427721 L31.6085449,3.39427721 C32.5908143,1.58205074 33.2560562,0.153203616 33.2560562,0.153203616 L24.7076113,0.153203616 L20.4509469,10.8483268 L25.4266325,10.8483268 C26.4278106,10.8483268 27.68929,9.53229639 28.9048484,7.82474014 L32.8383462,7.82474014 C41.9523327,7.82474014 44.137391,11.2773759 42.965298,19.6603736 C42.7693353,21.0605846 41.8548425,27.6029665 41.5203797,29.9958164 C40.3721068,38.2089719 34.1784072,40.1125379 34.1784072,40.1125379 L38.2572808,42.6145016 C38.2572808,42.6145016 47.2627266,41.5887829 49.0381785,28.8859172 C49.3758336,26.4713433 50.2704354,20.0714017 50.5410507,18.1315467 C52.1205398,6.83432295 46.5923277,3.39427721 34.4676855,3.39427721 M39.0924554,31.753486 C39.1457435,31.3708473 39.3279545,30.0664194 39.3279545,30.0664194 L34.2452015,30.0664194 C34.2452015,30.0664194 34.106456,31.0612802 34.0568513,31.4152827 C33.9276829,32.338553 33.5040792,32.834749 32.5579083,32.834749 L31.9945768,32.834749 L32.7781822,27.2329178 L38.0716319,27.2329178 C40.0040014,27.2329178 40.6596662,22.8024549 40.6596662,22.8024549 L33.3977486,22.8024549 L33.9876014,18.589232 L40.1987363,18.589232 L39.9654473,14.1587691 L28.2707935,14.1587691 C28.4945054,13.44163 28.6268662,12.9622207 28.6268662,12.9622207 L22.0675168,12.9622207 L20.3807146,20.5416771 L24.896207,20.5416771 C25.4403843,20.5416771 26.033675,19.7048091 26.5847281,18.589232 L27.3965738,18.589232 L26.8072121,22.8024549 L19.5462768,22.8024549 L18.9267104,27.2329178 L26.1876457,27.2329178 L25.4052681,32.834749 L24.8424278,32.834749 C23.8967479,32.834749 23.6116442,32.338553 23.7405671,31.4152827 C23.7847692,31.1010252 23.9296539,30.0664194 23.9296539,30.0664194 L18.8464099,30.0664194 C18.8464099,30.0664194 18.6641989,31.3708473 18.6109108,31.753486 C18.157839,34.9908566 19.5155809,36.7223587 22.6229901,36.7223587 L23.7010307,36.7223587 L32.6129153,36.7223587 L33.690956,36.7223587 C36.7976285,36.7223587 38.6396292,34.9908566 39.0924554,31.753486" id="Fill-5"></path>
                </g>
            </g>
        </g>
    </g>
</svg>